HIERARCHY
ROOT hip
{
	OFFSET 0.000000 0.000000 0.000000 
	CHANNELS 6 Xposition Yposition Zposition Xrotation Zrotation Yrotation
	JOINT abdomen
	{
		OFFSET 0.000000 3.402643 0.000000 
		CHANNELS 3 Xrotation Zrotation Yrotation
		JOINT chest
		{
			OFFSET 0.000000 8.438565 -0.680529 
			CHANNELS 3 Xrotation Zrotation Yrotation
			JOINT neck
			{
				OFFSET 0.000000 10.207942 -0.272212 
				CHANNELS 3 Xrotation Zrotation Yrotation
				JOINT head
				{
					OFFSET 0.000000 3.130431 0.000000 
					CHANNELS 3 Xrotation Zrotation Yrotation
					End Site
					{
						OFFSET 0.000000 3.130435 0.000000 
					}
				}
			}
			JOINT lCollar
			{
				OFFSET 3.470700 6.669187 -0.816635 
				CHANNELS 3 Yrotation Zrotation Xrotation
				JOINT lShldr
				{
					OFFSET 3.198488 0.000000 0.000000 
					CHANNELS 3 Zrotation Yrotation Xrotation
					JOINT lForeArm
					{
						OFFSET 10.139888 0.000000 0.000000 
						CHANNELS 3 Yrotation Zrotation Xrotation
						JOINT lHand
						{
							OFFSET 8.370511 0.000000 0.000000 
							CHANNELS 3 Zrotation Yrotation Xrotation
							End Site
							{
								OFFSET 4.083176 0.000000 0.000000 
							}
						}
					}
				}
			}
			JOINT rCollar
			{
				OFFSET -3.470700 6.669187 -0.816635 
				CHANNELS 3 Yrotation Zrotation Xrotation
				JOINT rShldr
				{
					OFFSET -3.198488 0.000000 0.000000 
					CHANNELS 3 Zrotation Yrotation Xrotation
					JOINT rForeArm
					{
						OFFSET -10.139888 0.000000 0.000000 
						CHANNELS 3 Yrotation Zrotation Xrotation
						JOINT rHand
						{
							OFFSET -8.370511 0.000000 0.000000 
							CHANNELS 3 Zrotation Yrotation Xrotation
							End Site
							{
								OFFSET -4.083176 0.000000 0.000000 
							}
						}
					}
				}
			}
		}
	}
	JOINT lThigh
	{
		OFFSET 5.308129 -1.633274 1.361059 
		CHANNELS 3 Xrotation Zrotation Yrotation
		JOINT lShin
		{
			OFFSET -2.041588 -20.007561 0.000000 
			CHANNELS 3 Xrotation Zrotation Yrotation
			JOINT lFoot
			{
				OFFSET 0.000000 -19.190928 -1.224953 
				CHANNELS 3 Xrotation Yrotation Zrotation
				End Site
				{
					OFFSET 0.000000 -2.449906 4.627600 
				}
			}
		}
	}
	JOINT rThigh
	{
		OFFSET -5.308129 -1.633274 1.361059 
		CHANNELS 3 Xrotation Zrotation Yrotation
		JOINT rShin
		{
			OFFSET 2.041588 -20.007561 0.000000 
			CHANNELS 3 Xrotation Zrotation Yrotation
			JOINT rFoot
			{
				OFFSET 0.000000 -19.190928 -1.224953 
				CHANNELS 3 Xrotation Yrotation Zrotation
				End Site
				{
					OFFSET 0.000000 -2.449906 4.627600 
				}
			}
		}
	}
}
MOTION
Frames: 11
Frame Time: 0.016667
0.275400 42.269314 1.480156 3.871490 -2.698910 -0.798068 -23.667900 2.478110 2.555440 13.168600 2.149990 1.498830 0.931008 3.133000 -5.002500 6.780470 6.597970 -2.112520 2.000000 -2.000000 0.000000 92.578300 -176.884995 4.342850 25.830400 -0.337905 0.059628 0.054789 0.046418 -116.424004 -2.000000 2.000000 0.000000 -99.355301 -177.061005 -0.173522 -32.656601 0.329953 0.073776 -0.055633 0.019858 -144.031006 -18.453138 6.014320 -7.455512 37.420910 2.784930 2.627722 -17.642586 6.939943 3.123304 -18.381264 -0.608400 2.064130 38.076820 -2.455422 -2.772956 -22.215282 -2.272815 -1.797009 
0.274943 42.261864 1.464159 3.929990 -2.650010 -0.963495 -23.667400 2.463640 2.572410 13.159100 2.091830 1.506000 1.005290 3.136630 -4.935340 6.809960 6.597740 -2.070090 2.000000 -2.000000 0.000000 92.529404 -176.826004 4.186730 25.908501 -0.337824 0.059796 0.054636 0.046008 -116.580002 -2.000000 2.000000 0.000000 -99.335800 -177.177994 -0.300176 -32.451500 0.330216 0.073363 -0.055643 0.019939 -144.059998 -18.484867 6.019989 -6.839641 37.313656 2.772264 2.615635 -17.491825 7.198112 3.225516 -18.541821 -0.742289 1.794416 38.144932 -2.461872 -2.773674 -22.256866 -1.653974 -1.548679 
0.269917 42.256207 1.448454 3.929930 -2.630530 -1.118410 -23.657900 2.469260 2.559580 13.110300 2.081920 1.495710 0.957181 3.194690 -4.949390 6.770930 6.637060 -2.082480 2.000000 -2.000000 0.000000 92.431801 -176.776993 3.981760 25.937799 -0.337793 0.059859 0.054522 0.045700 -116.696999 -2.000000 2.000000 0.000000 -99.365097 -177.246994 -0.387892 -32.285500 0.330428 0.073028 -0.055653 0.020021 -144.089996 -18.465700 6.061665 -6.131702 37.283340 2.774979 2.597572 -17.468071 7.562550 3.330030 -18.627855 -0.838175 1.565130 38.215511 -2.451584 -2.807707 -22.190344 -1.107417 -1.297689 
0.260837 42.249004 1.431031 3.880780 -2.542990 -1.227400 -23.638201 2.460510 2.563930 13.080800 2.110830 1.490840 0.974130 3.148350 -4.909510 6.760950 6.617620 -2.074770 2.000000 -2.000000 0.000000 92.363403 -176.718994 4.040480 25.957300 -0.337773 0.059901 0.054325 0.045161 -116.902000 -2.000000 2.000000 0.000000 -99.374901 -177.326004 -0.592770 -32.119499 0.330639 0.072693 -0.055643 0.019939 -144.059998 -18.407181 6.044550 -5.457502 37.245823 2.761335 2.613243 -17.421301 7.905276 3.453761 -18.665113 -0.971991 1.372173 38.283672 -2.449806 -2.796130 -22.021477 -0.580574 -1.081323 
0.250300 42.243870 1.410484 3.773370 -2.582290 -1.303330 -23.590000 2.472030 2.538930 13.032000 2.100910 1.490320 0.981412 3.199680 -4.868600 6.751270 6.637210 -2.045680 2.000000 -2.000000 0.000000 92.314598 -176.621002 4.099300 25.937799 -0.337793 0.059859 0.054259 0.044981 -116.971001 -2.000000 2.000000 0.000000 -99.394402 -177.393997 -0.729313 -31.933901 0.330874 0.072318 -0.055619 0.019749 -143.992004 -18.308235 6.141780 -4.854627 37.235291 2.767007 2.605518 -17.485498 8.121091 3.527138 -18.623875 -0.959544 1.208398 38.362034 -2.447280 -2.793944 -21.741625 -0.146350 -0.889994 
0.234766 42.234104 1.387927 3.675610 -2.582570 -1.357520 -23.541599 2.474620 2.517860 12.973300 2.110300 1.467350 0.980123 3.171650 -4.849650 6.760950 6.617620 -2.035710 2.000000 -2.000000 0.000000 92.294998 -176.475006 4.187510 25.869400 -0.337864 0.059712 0.054353 0.045238 -116.873001 -2.000000 2.000000 0.000000 -99.394402 -177.501999 -0.904820 -31.728901 0.331132 0.071902 -0.055593 0.019532 -143.914001 -18.180069 6.216422 -4.415798 37.217442 2.751989 2.620772 -17.639462 8.202857 3.587903 -18.609499 -0.947933 1.140001 38.431316 -2.439218 -2.799485 -21.365583 0.337200 -0.671213 
0.219001 42.225368 1.364499 3.587610 -2.573080 -1.362720 -23.522499 2.464540 2.490880 12.924500 2.110060 1.455790 0.901472 3.240790 -4.848230 6.702190 6.647330 -2.041100 2.000000 -2.000000 0.000000 92.285301 -176.406998 4.314610 25.830400 -0.337905 0.059628 0.054428 0.045444 -116.794998 -2.000000 2.000000 0.000000 -99.365097 -177.580994 -1.090170 -31.514000 0.331401 0.071465 -0.055603 0.019614 -143.942993 -18.154137 6.290731 -4.081719 37.286037 2.750599 2.619287 -17.858648 8.055530 3.556165 -18.606247 -0.954498 1.102062 38.538528 -2.445973 -2.799765 -21.245371 0.670376 -0.524234 
0.202695 42.207367 1.342799 3.480290 -2.651360 -1.343110 -23.494301 2.465610 2.438050 12.865900 2.100100 1.425640 0.841057 3.291620 -4.825440 6.663010 6.667130 -2.025200 2.000000 -2.000000 0.000000 92.265800 -176.367996 4.402590 25.840099 -0.337895 0.059649 0.054456 0.045521 -116.765999 -2.000000 2.000000 0.000000 -99.355400 -177.561005 -1.207400 -31.416401 0.331522 0.071267 -0.055633 0.019858 -144.031006 -18.118443 6.476018 -3.730536 37.374363 2.753039 2.628394 -18.044497 7.847688 3.519978 -18.529015 -0.892830 0.945397 38.627354 -2.437985 -2.805086 -21.261703 0.827988 -0.461634 
0.190044 42.188992 1.323656 3.353280 -2.680960 -1.319420 -23.427099 2.476060 2.382290 12.865800 2.109770 1.395040 0.790974 3.273440 -4.812780 6.643340 6.667270 -2.027460 2.000000 -2.000000 0.000000 92.236504 -176.261002 4.490720 25.869400 -0.337864 0.059712 0.054381 0.045315 -116.844002 -2.000000 2.000000 0.000000 -99.345596 -177.699005 -1.392600 -31.211300 0.331777 0.070849 -0.055636 0.019885 -144.041000 -18.139574 6.609027 -3.362455 37.530972 2.759053 2.637560 -18.236677 7.637300 3.493691 -18.467434 -0.921665 0.670468 38.745182 -2.436114 -2.811953 -21.361814 1.078852 -0.363836 
0.181336 42.171387 1.306539 3.177360 -2.700930 -1.302520 -23.349600 2.472120 2.343280 12.816900 2.119210 1.372400 0.781190 3.244170 -4.814370 6.653100 6.657450 -2.017010 2.000000 -2.000000 0.000000 92.187599 -176.231995 4.559140 25.967100 -0.337762 0.059922 0.054288 0.045058 -116.941002 -2.000000 2.000000 0.000000 -99.374901 -177.748001 -1.470600 -31.123400 0.331885 0.070669 -0.055677 0.020211 -144.158005 -17.996101 6.713843 -3.023201 37.649658 2.745198 2.640749 -18.410114 7.452744 3.435404 -18.381474 -1.002512 0.373040 38.903099 -2.423299 -2.823922 -21.487907 1.342743 -0.257111 
0.178793 42.149033 1.282826 2.962180 -2.662460 -1.280600 -23.301800 2.461040 2.285730 12.689800 2.147580 1.344170 0.798153 3.197840 -4.773780 6.653030 6.647690 -2.007690 2.000000 -2.000000 0.000000 92.119301 -176.231995 4.559140 26.035400 -0.337691 0.060068 0.054176 0.044750 -117.058998 -2.000000 2.000000 0.000000 -99.443298 -177.738007 -1.421800 -31.074600 0.331946 0.070570 -0.055719 0.020536 -144.274994 -17.919720 6.713818 -2.770312 37.874126 2.755295 2.640475 -18.515970 7.242244 3.366901 -18.257059 -1.143503 0.015642 39.090240 -2.412015 -2.835960 -21.655767 1.502933 -0.179112 
